<svg width="42" height="65" viewBox="0 0 42 65" fill="none" xmlns="http://www.w3.org/2000/svg">
<path d="M23.7154 2.9043C23.7154 1.36148 22.4647 0.110776 20.9219 0.110776C19.3791 0.110776 18.1284 1.36148 18.1284 2.9043L23.7154 2.9043ZM18.9466 63.9426C20.0375 65.0336 21.8063 65.0336 22.8972 63.9426L40.6751 46.1648C41.766 45.0738 41.766 43.3051 40.6751 42.2141C39.5841 41.1232 37.8154 41.1232 36.7244 42.2141L20.9219 58.0167L5.11933 42.2141C4.0284 41.1232 2.25964 41.1232 1.1687 42.2141C0.0777613 43.3051 0.0777614 45.0738 1.1687 46.1648L18.9466 63.9426ZM18.1284 2.9043L18.1284 61.9673L23.7154 61.9673L23.7154 2.9043L18.1284 2.9043Z" fill="#DE122B"/>
</svg>
