<svg width="129" height="180" viewBox="0 0 129 180" fill="none" xmlns="http://www.w3.org/2000/svg">
<path d="M45.8645 16.2355V23.9762H26.0708V0H45.8645V8.4832H34.554V16.2355H45.8645ZM66.2119 8.4832H74.1192V0H54.3234C54.3234 0 54.3234 4.25813 54.3234 8.4832C56.9718 11.1315 58.3527 12.3993 62.183 16.2295C59.9439 16.2295 54.3234 16.2369 54.3234 16.2369V23.9762H74.1192V16.2355L66.2119 8.4832ZM94.2683 8.4832H102.175V0H82.3799C82.3799 0 82.3799 4.25813 82.3799 8.4832C85.0275 11.1315 86.4091 12.3993 90.2391 16.2295C88.0014 16.2295 82.3799 16.2369 82.3799 16.2369V23.9762H102.175V16.2355L94.2683 8.4832ZM128.246 35.3711L116.222 165.62L64.1229 179.647L12.0227 165.62L0 35.3711H128.246ZM104.017 61.855H64.0758H23.4281L25.3719 77.5835H64.0758H66.2498L64.0758 78.4884L26.7866 94.0194L28.0234 109.393L64.0758 109.51L83.3987 109.572L82.1609 130.072L64.0758 135.164V135.148L63.9274 135.188L46.4604 130.779L45.4004 118.054H45.3428H29.141H29.0841L31.2047 142.62L64.0758 152.34V152.323L64.1348 152.34L96.8301 142.797L101.072 94.0198H64.0758H63.9844L64.0758 93.9804L102.426 77.5839L104.017 61.855Z" fill="white"/>
</svg>
