<svg width="128" height="180" viewBox="0 0 128 180" fill="none" xmlns="http://www.w3.org/2000/svg">
<path d="M11.9071 0H20.0493V8.00016H27.4975V0H35.6404V24.2258H27.4982V16.1132H20.05V24.2258H11.9078V0H11.9071ZM46.3473 8.03391H39.1798V0H61.6613V8.03391H54.4902V24.2258H46.348V8.03391H46.3473ZM65.2289 0H73.7204L78.9422 8.51238L84.1597 0H92.6522V24.2258H84.5433V12.2186L78.9418 20.8318H78.8022L73.1968 12.2186V24.2258H65.2289V0ZM96.7053 0H104.85V16.2186H116.3V24.2258H96.7053V0ZM0 35.3057L11.6469 165.22L63.9121 179.648L116.322 165.199L127.982 35.3053L0 35.3057ZM103.687 66.1356L102.958 74.2134L102.637 77.7952H102.585H63.9909H63.9351H41.3256L42.7899 94.1101H63.9351H63.9909H96.8608H101.179L100.788 98.3893L97.0227 140.338L96.7816 143.028L63.9909 152.066V152.069L63.9174 152.09L31.0974 143.029L28.8522 118.011H36.2654H44.9361L46.0769 130.719L63.9202 135.511L63.9351 135.507V135.505L81.8056 130.71L83.6641 110.045H63.9909H63.9351H28.1367L24.1989 66.1356L23.8153 61.8616H63.9351H63.9909H104.07L103.687 66.1356Z" fill="white"/>
</svg>
