<svg width="180" height="181" viewBox="0 0 180 181" fill="none" xmlns="http://www.w3.org/2000/svg">
<path fill-rule="evenodd" clip-rule="evenodd" d="M137.952 166.811C122.247 166.811 112.095 159.282 107.145 149.435L120.915 141.415C124.542 147.37 129.249 151.742 137.592 151.742C144.594 151.742 149.067 148.219 149.067 143.359C149.067 136.047 139.365 133.19 132.516 130.24C120.312 125.018 112.212 118.456 112.212 104.601C112.212 91.8494 121.878 82.1305 136.989 82.1305C147.735 82.1305 155.475 85.8947 161.028 95.732L147.861 104.239C144.963 99.0167 141.822 96.9517 136.989 96.9517C132.03 96.9517 128.889 100.112 128.889 104.239C128.889 109.343 132.03 111.407 139.284 114.566C154.485 121.118 165.987 126.265 165.987 143.116C165.987 158.429 154.026 166.811 137.952 166.811ZM99 141.172C99 158.792 88.2089 168.106 73.2239 168.106C59.6879 168.106 51.5789 162.9 47.5919 153.85H47.4571H47.3939H47.3579L61.1189 144.177C63.7739 148.91 66.168 152.268 71.964 152.268C77.526 152.268 81 149.436 81 140.938V81.45H99V141.172ZM0 181H180V0H0V181Z" fill="white"/>
</svg>
