<svg width="181" height="182" viewBox="0 0 181 182" fill="none" xmlns="http://www.w3.org/2000/svg">
<path d="M134.33 169.716C133.657 170.072 133.714 170.185 134.359 169.857C134.568 169.772 134.743 169.653 134.896 169.512C134.896 169.393 134.896 169.393 134.33 169.716ZM135.688 168.98C135.365 169.246 135.365 169.246 135.75 169.071C135.954 168.952 136.135 168.839 136.135 168.805C136.135 168.652 136.044 168.686 135.688 168.98ZM136.57 168.449C136.248 168.714 136.248 168.714 136.632 168.539C136.842 168.42 137.017 168.296 137.017 168.268C137.017 168.126 136.926 168.155 136.57 168.449ZM137.464 167.923C137.141 168.188 137.141 168.188 137.515 168.007C137.724 167.894 137.899 167.776 137.899 167.742C137.899 167.6 137.809 167.628 137.464 167.923ZM138.669 167.125C138.052 167.538 137.837 167.804 138.403 167.51C138.782 167.278 139.427 166.769 139.313 166.769C139.07 166.859 138.867 167.012 138.663 167.125H138.669ZM84.5779 0.0620814C84.165 0.0903627 82.9263 0.203488 81.8403 0.293988C56.1157 2.62436 32.0483 16.4709 16.7934 37.8006C8.35994 49.4921 2.88469 63.0727 0.820156 77.3321C0.0905 82.3096 0 83.7802 0 90.5281C0 97.2704 0.0905 98.7184 0.820156 103.696C5.74675 137.696 29.9329 166.237 62.7165 176.814C68.616 178.698 74.7982 179.999 81.8403 180.796C84.5779 181.09 96.4164 181.09 99.1541 180.796C111.326 179.439 121.604 176.435 131.774 171.248C133.335 170.457 133.629 170.247 133.42 170.072C128.442 163.505 123.555 156.933 118.662 150.303L104.199 130.772L86.0825 103.933C80.0416 94.9513 73.9781 85.9918 67.8184 77.1002C67.7562 77.1002 67.677 89.0292 67.6431 103.577C67.5809 129.059 67.5809 130.094 67.2585 130.682C66.9361 131.389 66.4044 131.977 65.6973 132.305C65.1374 132.571 64.634 132.628 61.9586 132.628H58.8985L58.101 132.13C57.6033 131.807 57.1903 131.361 56.9245 130.835L56.5399 130.037L56.5682 94.5667L56.6304 59.0964L57.1903 58.3893C57.5467 57.9538 57.9879 57.5975 58.4856 57.3316C59.2266 56.9753 59.5207 56.9187 62.5807 56.9187C66.1725 56.9187 66.7664 57.0601 67.711 58.0952C75.0415 69.0231 82.3493 79.9792 89.5384 90.9693C101.298 108.798 117.35 133.125 125.241 145.06L139.591 166.774L140.298 166.305C147.193 161.706 153.465 156.231 158.878 149.987C170.281 136.932 177.68 120.874 180.186 103.735C180.915 98.758 181.006 97.2817 181.006 90.5395C181.006 83.7915 180.915 82.3492 180.186 77.3717C175.259 43.372 151.073 14.8306 118.289 4.24771C112.158 2.30761 105.851 0.98405 99.4651 0.3053C97.7513 0.129956 86.0542 -0.0793248 84.5836 0.0733939L84.5779 0.0620814ZM121.609 54.7976C122.463 55.2049 123.108 55.9741 123.402 56.8565C123.555 57.3316 123.583 67.1678 123.555 89.3234L123.493 121.134L117.899 112.537L112.271 103.933V80.839C112.271 65.8669 112.333 57.473 112.412 57.0601C112.678 56.1155 113.323 55.3236 114.183 54.8259C114.884 54.4696 115.156 54.4413 117.955 54.4413C120.574 54.4413 121.021 54.4696 121.609 54.7976Z" fill="white"/>
</svg>
