<svg width="181" height="165" viewBox="0 0 181 165" fill="none" xmlns="http://www.w3.org/2000/svg">
<path fill-rule="evenodd" clip-rule="evenodd" d="M64.1388 13.161C59.3186 11.7626 55.7432 12.1376 53.1423 13.5464C50.5414 14.9553 48.274 17.7451 46.8122 22.5465C45.3397 27.3827 44.8371 33.8392 45.5526 41.635C45.6686 42.8982 45.8158 44.1888 45.9943 45.5044C52.3074 43.9 59.0918 42.6329 66.2204 41.7483C71.1622 34.8244 76.3458 28.5806 81.6046 23.1663C81.341 22.9527 81.078 22.7419 80.8152 22.534C74.6764 17.6758 68.9939 14.5697 64.1388 13.161ZM90.4993 14.8614C89.7668 14.2474 89.0347 13.6507 88.3034 13.072C81.4017 7.60998 74.3337 3.55462 67.5011 1.57229C60.6334 -0.420238 53.5838 -0.415979 47.395 2.93637C41.2062 6.28868 37.3515 12.1911 35.2687 19.0319C33.1965 25.8378 32.7319 33.9734 33.5365 42.738C33.7251 44.7923 33.9849 46.8978 34.3151 49.0481C32.2674 49.7819 30.2924 50.5562 28.3964 51.3688C20.3065 54.8359 13.3743 59.1192 8.37693 64.1828C3.35394 69.2724 0 75.4731 0 82.5116C0 89.55 3.35393 95.7507 8.37693 100.84C13.3743 105.904 20.3065 110.187 28.3964 113.655C30.2924 114.467 32.2672 115.242 34.3149 115.975C33.9848 118.126 33.7249 120.231 33.5363 122.286C32.7317 131.05 33.1962 139.186 35.2685 145.992C37.3513 152.833 41.206 158.735 47.3947 162.087C53.5836 165.44 60.6332 165.444 67.5008 163.452C74.3334 161.469 81.4015 157.413 88.3031 151.952C89.0346 151.373 89.7667 150.777 90.4993 150.163C91.2318 150.777 91.9639 151.373 92.6953 151.952C99.5971 157.413 106.665 161.469 113.498 163.452C120.365 165.444 127.414 165.44 133.603 162.087C139.792 158.735 143.648 152.833 145.73 145.992C147.802 139.186 148.267 131.05 147.462 122.286C147.274 120.231 147.014 118.126 146.684 115.975C148.731 115.242 150.707 114.467 152.604 113.655C160.693 110.187 167.625 105.904 172.623 100.84C177.645 95.7507 181 89.55 181 82.5116C181 75.4731 177.645 69.2724 172.623 64.1828C167.625 59.1192 160.693 54.8359 152.604 51.3688C150.707 50.5561 148.731 49.7816 146.684 49.0476C147.013 46.8975 147.274 44.7922 147.462 42.738C148.267 33.9734 147.802 25.8378 145.73 19.0319C143.648 12.1911 139.792 6.28868 133.603 2.93637C127.414 -0.415979 120.365 -0.420238 113.498 1.57229C106.665 3.55462 99.5968 7.60998 92.695 13.072C91.9638 13.6507 91.2317 14.2474 90.4993 14.8614ZM90.4993 31.3283C87.7867 34.1057 85.0719 37.1499 82.3877 40.4382C85.0623 40.3322 87.7682 40.2783 90.5 40.2783C93.2313 40.2783 95.9368 40.3322 98.6107 40.4382C95.9266 37.1499 93.2119 34.1057 90.4993 31.3283ZM114.778 41.748C109.836 34.8243 104.653 28.5805 99.394 23.1663C99.6575 22.9527 99.9206 22.7419 100.183 22.534C106.322 17.6758 112.005 14.5697 116.86 13.161C121.68 11.7626 125.256 12.1376 127.856 13.5464C130.458 14.9553 132.725 17.7451 134.186 22.5465C135.658 27.3827 136.161 33.8392 135.446 41.635C135.33 42.8981 135.183 44.1885 135.004 45.504C128.691 43.8998 121.907 42.6326 114.778 41.748ZM107.989 53.147C102.374 52.6232 96.5225 52.345 90.5 52.345C84.4769 52.345 78.6253 52.6232 73.0096 53.1472C69.8743 57.8353 66.8426 62.8479 63.974 68.1437C61.3617 72.9663 59.02 77.7738 56.9506 82.5116C59.0201 87.2496 61.3619 92.0572 63.9742 96.88C66.8427 102.176 69.8744 107.188 73.0095 111.876C78.6252 112.4 84.4769 112.679 90.5 112.679C96.5226 112.679 102.374 112.4 107.989 111.876C111.124 107.188 114.156 102.176 117.024 96.88C119.637 92.0572 121.978 87.2496 124.048 82.5116C121.978 77.7739 119.637 72.9663 117.025 68.1437C114.156 62.8478 111.124 57.8352 107.989 53.147ZM129.992 66.8794C129.229 65.3848 128.444 63.89 127.635 62.3965C126.333 59.9945 124.997 57.6409 123.63 55.3398C126.775 55.9384 129.805 56.6185 132.707 57.3723C131.944 60.4599 131.039 63.6357 129.992 66.8794ZM129.992 98.1439C129.229 99.6386 128.444 101.134 127.634 102.627C126.333 105.029 124.997 107.382 123.63 109.683C126.775 109.085 129.805 108.405 132.707 107.651C131.944 104.563 131.039 101.387 129.992 98.1439ZM144.236 104.018C142.487 97.0958 140.111 89.8683 137.136 82.5115C140.111 75.1548 142.487 67.9274 144.236 61.0049C145.479 61.4747 146.684 61.9601 147.85 62.4599C155.046 65.5436 160.483 69.0608 164.034 72.659C167.56 76.2312 168.933 79.5536 168.933 82.5116C168.933 85.4695 167.56 88.792 164.034 92.3642C160.483 95.9623 155.046 99.4795 147.85 102.563C146.684 103.063 145.479 103.548 144.236 104.018ZM135.004 119.519C128.691 121.123 121.907 122.391 114.778 123.276C109.836 130.199 104.653 136.443 99.394 141.857C99.6575 142.071 99.9207 142.282 100.184 142.489C106.322 147.347 112.005 150.455 116.86 151.863C121.68 153.261 125.256 152.886 127.856 151.478C130.458 150.068 132.725 147.279 134.186 142.477C135.66 137.641 136.161 131.184 135.446 123.389C135.33 122.126 135.183 120.835 135.004 119.519ZM90.4993 133.695C93.212 130.917 95.9267 127.873 98.611 124.585C95.9369 124.691 93.2313 124.745 90.5 124.745C87.7682 124.745 85.0622 124.691 82.3875 124.585C85.0718 127.873 87.7866 130.917 90.4993 133.695ZM57.3681 109.683C56.0012 107.382 54.665 105.029 53.3641 102.627C52.555 101.134 51.769 99.6386 51.0063 98.1439C49.9597 101.387 49.0547 104.563 48.2918 107.65C51.1932 108.404 54.2237 109.084 57.3681 109.683ZM45.9942 119.519C52.3072 121.123 59.0917 122.39 66.2202 123.274C71.162 130.198 76.3458 136.443 81.6047 141.857C81.341 142.071 81.0777 142.282 80.8149 142.489C74.6761 147.347 68.9937 150.455 64.1386 151.863C59.3184 153.261 55.7429 152.886 53.1421 151.478C50.5411 150.068 48.2738 147.279 46.8119 142.477C45.3394 137.641 44.8368 131.184 45.5524 123.389C45.6685 122.126 45.8157 120.835 45.9942 119.519ZM36.7618 104.018C38.5115 97.0954 40.8872 89.8681 43.8616 82.5116C40.8872 75.1551 38.5116 67.9277 36.7618 61.0053C35.5202 61.4751 34.3155 61.9602 33.1497 62.4599C25.9541 65.5436 20.5165 69.0608 16.9654 72.659C13.4399 76.2312 12.0667 79.5536 12.0667 82.5116C12.0667 85.4695 13.4399 88.792 16.9654 92.3642C20.5165 95.9623 25.9541 99.4795 33.1497 102.563C34.3155 103.063 35.5202 103.548 36.7618 104.018ZM48.2918 57.3727C49.0547 60.4602 49.9597 63.6359 51.0063 66.8793C51.7689 65.3848 52.5549 63.8901 53.3639 62.3965C54.6649 59.9946 56.0012 57.6411 57.3682 55.34C54.2239 55.9388 51.1933 56.6189 48.2918 57.3727ZM72.4 82.5116C72.4 72.5152 80.5036 64.4116 90.5 64.4116C100.496 64.4116 108.6 72.5152 108.6 82.5116C108.6 92.5079 100.496 100.612 90.5 100.612C80.5036 100.612 72.4 92.5079 72.4 82.5116ZM90.5 76.4783C87.1679 76.4783 84.4667 79.1794 84.4667 82.5116C84.4667 85.8437 87.1679 88.545 90.5 88.545C93.8321 88.545 96.5333 85.8437 96.5333 82.5116C96.5333 79.1794 93.8321 76.4783 90.5 76.4783Z" fill="white"/>
</svg>
