<svg width="181" height="136" viewBox="0 0 181 136" fill="none" xmlns="http://www.w3.org/2000/svg">
<path d="M155.739 78.0336C155.96 78.028 156.22 78.0223 156.486 78.0223C161.203 78.0223 165.666 79.1196 169.625 81.0767L169.45 80.9975C173.059 82.7566 176.022 85.3585 178.166 88.5486L178.217 88.6278C179.908 91.0939 180.915 94.1426 180.915 97.4233C180.915 97.6608 180.909 97.8984 180.898 98.1303V98.0964C180.723 101.371 179.235 104.262 176.95 106.287L176.939 106.298C175.689 107.525 174.179 108.487 172.499 109.098L172.414 109.126C171.471 109.315 170.953 109.173 170.858 108.702C170.764 108.23 171.188 107.712 172.131 107.146C174.688 105.597 176.537 103.096 177.21 100.15L177.227 100.076C177.244 99.8385 177.256 99.5613 177.256 99.2785C177.256 97.5194 176.837 95.8565 176.096 94.3859L176.124 94.4481C174.897 91.8858 173.064 89.7817 170.807 88.2601L170.751 88.2262C167.374 86.0542 163.324 84.6288 158.969 84.2725L158.878 84.2668C157.396 84.0462 155.688 83.9218 153.946 83.9218C149.415 83.9218 145.088 84.7759 141.106 86.3313L141.344 86.2465C142.164 88.164 142.679 90.3869 142.752 92.7173V92.7455C142.662 97.5251 140.094 101.682 136.276 104.001L136.214 104.035C134.46 105.28 132.458 106.371 130.326 107.22L130.128 107.288C128.832 107.921 127.311 108.289 125.704 108.289C125.518 108.289 125.337 108.283 125.156 108.272H125.184C121.606 107.522 120.757 104.411 122.639 98.9391C123.459 96.5579 124.607 94.4933 126.061 92.6777L126.027 92.7173C127.888 90.2851 129.93 88.1527 132.187 86.2635L132.249 86.2126L131.694 85.3868C130.659 83.622 129.709 81.5688 128.946 79.4251L128.866 79.1649C128.301 77.2795 127.829 75.4902 127.452 73.7971L127.169 71.8174L124.341 77.1852C121.89 81.7102 119.534 85.6677 117.271 89.0577L116.423 90.4717C117.373 92.7795 118.074 95.4549 118.391 98.2491L118.402 98.3905C118.425 98.6563 118.436 98.9731 118.436 99.2898C118.436 103.577 116.321 107.367 113.074 109.68L113.034 109.709C111.485 110.665 109.635 111.654 107.718 112.537L107.378 112.678C105.382 113.544 103.068 114.109 100.642 114.234H100.591C100.404 114.245 100.183 114.256 99.9629 114.256C98.5488 114.256 97.2083 113.934 96.0092 113.363L96.0657 113.385C95.3474 112.769 94.8949 111.864 94.8949 110.851C94.8949 110.336 95.0137 109.844 95.223 109.409L95.2116 109.431C97.4742 106.258 99.7027 103.498 102.073 100.862L101.999 100.947L108.221 93.034L107.095 90.4887C106.19 88.8258 105.325 86.863 104.629 84.8268L104.55 84.5553C103.984 82.6699 103.513 80.8806 103.136 79.1875L102.853 77.2078L100.025 83.9953C97.7664 89.2707 95.6924 93.7938 93.8032 97.5647C90.9864 103.221 88.6297 107.557 86.7329 110.574L86.1673 111.422C83.9086 115.001 81.7403 116.79 79.6626 116.79C77.5849 116.79 76.1765 115.47 75.4374 112.831C74.8944 110.885 74.5777 108.651 74.5777 106.343C74.5777 106.14 74.5777 105.936 74.5833 105.732V105.761L75.1489 101.801V102.084C73.6406 105.663 72.1323 108.96 70.6239 111.977C69.6228 113.934 68.5933 115.602 67.4395 117.175L67.513 117.067C66.3478 118.289 64.7075 119.047 62.8918 119.047C62.8749 119.047 62.8636 119.047 62.8466 119.047C62.7278 119.058 62.5921 119.058 62.4563 119.058C61.0253 119.058 59.7243 118.515 58.7402 117.627L58.7458 117.633C56.7718 115.608 55.3068 113.08 54.5489 110.257L54.5206 110.139C53.593 107.565 53.0613 104.59 53.0613 101.49C53.0613 101.089 53.0726 100.693 53.0896 100.302V100.359C53.5364 95.8565 54.4357 91.7331 55.7537 87.802L55.6349 88.2036L45.4593 94.1426V94.4254C46.9356 97.4911 47.801 101.089 47.801 104.89C47.801 105.585 47.7727 106.275 47.7161 106.954L47.7218 106.864C47.422 112.689 45.5611 118.023 42.5576 122.531L42.6311 122.418C39.4806 127.418 34.9387 131.282 29.5426 133.516L29.3559 133.584C26.3185 134.947 22.7664 135.744 19.0333 135.744C16.669 135.744 14.3725 135.428 12.2005 134.828L12.3815 134.868C10.5828 134.262 9.11222 133.063 8.17894 131.513L8.16197 131.48C6.84406 129.568 6.01259 127.232 5.8825 124.715V124.681C5.82028 124.109 5.78634 123.448 5.78634 122.775C5.78634 119.873 6.44812 117.124 7.63028 114.675L7.57937 114.788C10.8261 109.25 15.3171 104.765 20.6792 101.609L20.8489 101.518C24.6443 98.8882 29.0052 96.3373 33.5585 94.1143L34.1581 93.8485L35.5722 93.0001C33.8753 91.6803 30.7643 89.4178 26.2393 86.2126C20.1928 82.1627 14.9382 78.0732 9.98328 73.65L10.1247 73.7745C5.33384 69.6511 1.84394 64.1419 0.277156 57.8691L0.231906 57.6542C0.0848437 56.7831 0 55.7819 0 54.7638C0 51.5737 0.820156 48.5759 2.25684 45.9683L2.21159 46.0645C5.37909 39.2544 9.76834 33.5133 15.1531 28.8978L15.221 28.8412C21.0469 23.3377 27.6421 18.5468 34.8029 14.6667L35.295 14.4234C41.6922 10.7299 49.1641 7.29656 56.9528 4.54197L57.9143 4.24784C65.1487 1.60072 73.503 0.0509063 82.2136 0.022625H82.2249C82.6208 0.0113125 83.0903 0 83.5598 0C90.5792 0 97.2196 1.62334 103.125 4.51369L102.865 4.39491C107.955 6.71397 111.767 11.0806 113.295 16.4201L113.329 16.5558C113.798 18.3772 114.064 20.47 114.064 22.625C114.064 26.1998 113.323 29.6048 111.994 32.6931L112.056 32.5291C109.635 38.3946 106.19 43.3891 101.892 47.5012L101.875 47.5182C97.5194 51.8339 92.2987 55.2842 86.501 57.5863L86.1899 57.6938C80.1151 60.3013 73.0618 61.9416 65.6577 62.2131L65.5503 62.2188C64.4643 62.3432 63.2086 62.4111 61.9359 62.4111C58.5874 62.4111 55.3577 61.9303 52.3033 61.0309L52.5466 61.0932C49.8146 60.2221 47.4559 58.8703 45.4536 57.1168L45.4762 57.1338C44.0735 55.9912 42.9309 54.5828 42.1164 52.9821L42.0825 52.9086C41.5169 51.4002 41.4697 50.5047 41.9411 50.2218C42.4124 49.939 42.7424 49.8919 42.9309 50.0804L44.345 51.4945C45.9231 52.9595 47.8066 54.1133 49.8881 54.8487L50.0012 54.8826C52.8633 55.8781 56.1666 56.455 59.5999 56.455C60.7029 56.455 61.7889 56.3985 62.8579 56.2797L62.7278 56.291C71.8796 55.2107 80.1321 52.0884 87.2533 47.3937L87.044 47.5238C93.0623 43.9434 97.9323 39.0225 101.36 33.1569L101.462 32.9646C103.164 30.4646 104.182 27.3763 104.182 24.0504C104.182 22.0085 103.798 20.0514 103.096 18.2527L103.136 18.3602C101.021 15.0173 97.5986 12.6643 93.6053 12.0139L93.5261 12.0026C90.4265 11.239 86.863 10.7978 83.2034 10.7978C80.2565 10.7978 77.3718 11.0806 74.5833 11.6236L74.8661 11.5783C65.324 13.2978 56.7944 16.2448 48.9266 20.2946L49.4413 20.0514C26.2582 31.741 14.2877 43.7115 13.5297 55.9629V56.2401C13.5297 61.178 15.4698 65.6634 18.6317 68.978L18.626 68.9723C22.2291 72.9769 26.2111 76.5121 30.5607 79.5665L30.7813 79.7135C34.7463 82.6774 38.2532 85.7374 41.5169 89.0407L41.5225 89.052L42.0882 89.6176L60.1882 79.7249C62.2527 76.7383 64.7358 74.2157 67.5865 72.1794L67.677 72.1172C69.9395 70.2167 72.8129 68.978 75.9634 68.7291L76.0143 68.7234C76.1275 68.7121 76.2576 68.7121 76.3933 68.7121C78.5031 68.7121 80.3131 69.9848 81.0937 71.8061L81.105 71.84C81.6989 73.1693 82.0439 74.7247 82.0439 76.3594C82.0439 76.8571 82.01 77.3492 81.9477 77.8357L81.9534 77.7791L81.4047 80.5676L82.2532 80.002C82.8414 79.5552 83.5824 79.2893 84.3856 79.2893C84.8947 79.2893 85.3754 79.3968 85.811 79.5891L85.7883 79.5778C86.8743 79.8606 87.6606 80.8335 87.6606 81.9874C87.6606 82.1853 87.6379 82.3776 87.5927 82.5643L87.5983 82.5473L86.7499 85.6583C85.053 92.442 83.9237 97.3422 83.3618 100.359C83.079 101.337 82.9206 102.463 82.9206 103.628C82.9206 103.871 82.9263 104.109 82.9432 104.347V104.313C83.0375 105.444 83.1789 106.009 83.3675 106.009C83.556 106.009 83.9312 105.444 84.4931 104.313L85.3415 102.333C85.53 102.333 85.53 102.427 85.3415 102.616L88.4524 96.111C95.8056 79.904 99.763 70.854 100.325 68.961L102.022 63.5932C102.21 63.2161 102.964 62.8409 104.284 62.4676C105.625 62.1056 107.158 61.8963 108.741 61.8963C108.871 61.8963 109.002 61.8964 109.126 61.902H109.109C111.749 61.902 113.068 62.5619 113.068 63.8817L112.786 65.2958C112.152 67.0379 111.524 69.2155 111.038 71.4441L110.976 71.8004C110.862 72.5301 110.795 73.3672 110.795 74.227C110.795 75.3695 110.908 76.4838 111.128 77.5642L111.111 77.4567L111.394 78.5823C111.971 80.9409 112.848 83.0111 113.996 84.9003L113.939 84.8042C116.198 81.0371 118.366 77.1739 120.444 73.2145C122.084 70.4825 123.612 67.315 124.839 64.0005L124.969 63.6045C125.393 61.4721 125.88 59.6734 126.474 57.92L126.383 58.2368C126.572 57.6711 127.377 57.2469 128.798 56.9641C130.145 56.6926 131.689 56.5399 133.267 56.5399H133.471H133.459C136.099 56.5399 137.507 57.1998 137.684 58.5196L137.119 59.6452C136.446 61.5457 135.857 63.8308 135.462 66.1781L135.428 66.4327C135.377 66.9813 135.343 67.6148 135.343 68.2596C135.343 69.6115 135.478 70.935 135.733 72.2133L135.71 72.0833V73.2088C136.361 75.675 137.328 77.8413 138.595 79.804L138.539 79.7135L139.387 81.6932C144.11 79.3742 149.664 78.0167 155.536 78.0167H155.756H155.745L155.739 78.0336ZM34.4748 119.058C38.4059 114.997 40.8325 109.454 40.8325 103.345C40.8325 100.987 40.4705 98.7129 39.803 96.5748L39.8483 96.7332L35.3233 99.5613C30.7078 102.191 26.7145 105.127 23.1001 108.464L23.1454 108.425C20.4021 110.947 18.3772 114.211 17.3817 117.893L17.3477 118.035C16.4993 121.523 16.9235 123.785 18.6204 124.822C19.6555 125.297 20.8716 125.574 22.1442 125.574C23.5357 125.574 24.8536 125.246 26.0131 124.658L25.9622 124.681C29.322 123.459 32.1671 121.519 34.4296 119.036L34.4466 119.019L34.4748 119.058ZM72.3548 93.017C73.2975 90.566 74.3344 87.6436 75.4657 84.2499C76.974 79.7249 77.4925 77.0872 77.0212 76.3368C76.5498 75.5864 75.6542 75.4921 74.3344 76.0539C72.762 76.8175 71.4441 77.8639 70.392 79.1479L70.3751 79.1705C69.1986 80.6581 68.0786 82.3211 67.0831 84.0688L66.9813 84.2612C65.8387 86.1334 64.8715 88.2884 64.1984 90.5735L64.1475 90.7659C63.0559 93.7241 62.4224 97.1461 62.4224 100.71C62.4224 101.19 62.4337 101.665 62.4563 102.141V102.073C62.6449 105.84 63.2482 107.867 64.2663 108.153C65.2844 108.44 66.4628 107.073 67.8015 104.052C69.0967 101.716 70.2506 99.0014 71.1104 96.1563L71.1896 95.8508C71.7514 94.5159 72.136 93.5714 72.3434 93.017H72.3548ZM103.724 108.006C107.644 106.247 110.404 102.542 110.789 98.1586L110.795 98.1133V97.8305L107.684 101.79L102.033 108.012C101.948 108.08 101.892 108.181 101.892 108.295C101.892 108.408 101.948 108.51 102.027 108.577C102.208 108.762 102.774 108.574 103.724 108.012V108.006ZM128.041 102.633C132.317 101.411 135.394 97.5364 135.394 92.9492C135.394 92.8756 135.394 92.8021 135.394 92.7286V92.7399C135.337 91.6086 135.133 90.5453 134.8 89.5384L134.822 89.6233C132.622 91.5804 130.818 93.922 129.511 96.5635L129.449 96.6936C127.748 100.084 127.273 102.059 128.024 102.621L128.041 102.633Z" fill="white"/>
</svg>
