<svg width="150" height="151" viewBox="0 0 150 151" fill="none" xmlns="http://www.w3.org/2000/svg">
<path d="M75 0.0830078C89.8336 0.0830078 104.334 4.50612 116.668 12.793C129.001 21.0799 138.614 32.8584 144.291 46.639C149.968 60.4196 151.453 75.5833 148.559 90.2127C145.665 104.842 138.522 118.28 128.033 128.827C117.544 139.375 104.18 146.557 89.6318 149.467C75.0832 152.377 60.0032 150.884 46.2987 145.176C32.5943 139.467 20.8809 129.801 12.6398 117.399C4.39867 104.997 0 90.4157 0 75.4997C0 55.4979 7.90176 36.3154 21.967 22.172C36.0322 8.02867 55.1088 0.0830078 75 0.0830078ZM60 100.613C61.1279 104.299 61.1279 108.24 60 111.926C60 112.303 60 112.68 59.55 113.208C59.1 113.736 59.55 113.736 59.025 114.113C58.1568 115.975 56.9914 117.682 55.575 119.166C51.225 123.993 45 125.803 42.525 124.294C40.05 122.786 41.25 115.848 46.2 110.493C50.0762 106.648 54.5309 103.441 59.4 100.991L60 100.613ZM122.025 32.7384C118.65 19.3143 96.525 14.9401 75.675 22.4063C62.6031 26.7074 50.4988 33.5491 40.05 42.5426C28.575 53.4026 26.7 62.8297 27.45 66.7513C30 80.628 49.05 89.7534 56.85 96.4655C54.6 97.5968 37.8 106.119 33.75 114.867C32.0374 117.6 31.4705 120.903 32.1732 124.054C32.8759 127.206 34.7911 129.95 37.5 131.685C42.3099 132.852 47.3623 132.476 51.9488 130.609C56.5353 128.743 60.4259 125.48 63.075 121.278C65.2654 117.885 66.6368 114.025 67.0795 110.005C67.5223 105.985 67.0242 101.917 65.625 98.1247C69.3841 97.2409 73.2697 97.0366 77.1 97.5213C90.3 99.1051 92.85 107.326 92.1 110.795C91.8766 112.027 91.3927 113.196 90.6811 114.224C89.9694 115.252 89.0466 116.114 87.975 116.753C87.075 117.281 86.775 117.507 86.85 117.959C86.925 118.412 87.375 118.563 88.125 118.412C90.1711 117.852 91.993 116.665 93.3371 115.016C94.6813 113.367 95.481 111.338 95.625 109.211C95.625 101.066 88.125 92.0159 74.55 92.2422C70.5861 92.149 66.6337 92.7094 62.85 93.9013L62.25 93.2226C53.775 84.1726 38.175 78.1393 38.85 65.5447C38.85 61.0951 40.575 49.4809 68.85 35.378C91.95 23.7638 110.475 26.9313 113.85 34.0959C118.425 44.1263 103.95 62.9051 79.95 65.6201C77.3221 66.1201 74.6172 66.0349 72.0256 65.3704C69.4341 64.7058 67.0188 63.4782 64.95 61.7738C63.675 60.4918 63.525 60.2655 63.075 60.4918C62.625 60.718 63.075 62.2263 63.075 62.9805C64.9821 66.2838 68.0646 68.7364 71.7 69.8434C81.1592 71.8963 91.0202 70.9205 99.9 67.053C114 61.3213 125.4 45.333 122.025 32.3613V32.7384Z" fill="white"/>
</svg>
