<svg width="159" height="96" viewBox="0 0 159 96" fill="none" xmlns="http://www.w3.org/2000/svg">
<path d="M39.5938 31.675C44.8729 10.5583 58.0708 0 79.1875 0C110.863 0 114.822 23.7562 130.659 27.7156C141.218 30.3552 150.456 26.3958 158.375 15.8375C153.096 36.9542 139.898 47.5125 118.781 47.5125C87.1062 47.5125 83.1469 23.7562 67.3094 19.7969C56.751 17.1573 47.5125 21.1167 39.5938 31.675ZM0 79.1875C5.27917 58.0708 18.4771 47.5125 39.5938 47.5125C71.2688 47.5125 75.2281 71.2687 91.0656 75.2281C101.624 77.8677 110.863 73.9083 118.781 63.35C113.502 84.4667 100.304 95.025 79.1875 95.025C47.5125 95.025 43.5531 71.2687 27.7156 67.3094C17.1573 64.6698 7.91875 68.6292 0 79.1875Z" fill="white"/>
</svg>
